<?xml version="1.0" encoding="UTF-8"?>
<svg version="1.1" xmlns="http://www.w3.org/2000/svg" width="1000" height="396">
<path d="M0 0 C1.22355698 0.00222061 2.44711395 0.00444122 3.70774841 0.00672913 C4.71746201 0.00651009 4.71746201 0.00651009 5.74757385 0.00628662 C7.98229649 0.00698573 10.21693674 0.01477799 12.4516449 0.02259827 C13.99721226 0.02446245 15.54278022 0.02588635 17.08834839 0.02688599 C21.16380941 0.03071112 25.23923502 0.04054135 29.31468201 0.05158997 C33.47035747 0.0618042 37.62603864 0.06638363 41.78172302 0.07142639 C49.94124452 0.08216363 58.10073718 0.09923998 66.26023865 0.12025452 C67.4341527 2.46808262 67.39487867 3.87447301 67.41172791 6.49209595 C67.42007156 7.41054291 67.42841522 8.32898987 67.43701172 9.27526855 C67.44119614 10.28573746 67.44538055 11.29620636 67.44969177 12.33729553 C67.46213173 13.93003296 67.46213173 13.93003296 67.474823 15.5549469 C67.49225003 17.86578425 67.50740954 20.17663954 67.52059937 22.48750496 C67.54157 26.13832421 67.56859617 29.78905304 67.59727478 33.43981934 C67.66722461 42.50647011 67.72658676 51.57318492 67.78630066 60.63990784 C67.83713326 68.29844922 67.89192574 75.95694186 67.95211792 83.61541557 C67.97879833 87.22342376 67.99954791 90.83143622 68.02012634 94.43948364 C68.03672103 96.63719399 68.05359213 98.83490228 68.07078552 101.03260803 C68.07496994 102.04510117 68.07915436 103.0575943 68.08346558 104.10076904 C68.09180923 105.01639618 68.10015289 105.93202332 68.10874939 106.87539673 C68.11647999 108.07582281 68.11647999 108.07582281 68.12436676 109.30049992 C68.0627314 111.14024541 68.0627314 111.14024541 69.26023865 112.12025452 C70.92452916 112.21849389 72.59305796 112.24999083 74.26023865 112.24525452 C75.16773865 112.24783264 76.07523865 112.25041077 77.01023865 112.25306702 C79.22990476 112.37199231 79.22990476 112.37199231 80.26023865 111.12025452 C80.71631523 108.05415551 81.09678787 104.98297925 81.4672699 101.90541077 C82.26023865 99.12025452 82.26023865 99.12025452 84.01292419 97.98524475 C86.40793547 97.06340608 88.4587028 96.72039003 91.01023865 96.49525452 C92.20906677 96.38310608 92.20906677 96.38310608 93.43211365 96.26869202 C94.0353949 96.21970764 94.63867615 96.17072327 95.26023865 96.12025452 C95.2683255 94.97655396 95.27641235 93.83285339 95.28474426 92.65449524 C95.3621827 81.88342337 95.44991623 71.11247817 95.54776573 60.34157181 C95.59774092 54.80395774 95.64407096 49.26636287 95.68211365 43.72865295 C95.71895085 38.38583908 95.76530672 33.0431853 95.81830215 27.70050812 C95.83685439 25.66076715 95.85195928 23.62099186 95.86358261 21.58119965 C95.88043072 18.7271887 95.90946253 15.87354506 95.94139099 13.01966858 C95.94355118 12.17378174 95.94571136 11.3278949 95.94793701 10.45637512 C96.04930608 3.37727522 96.04930608 3.37727522 98.26023865 0.12025452 C107.10906255 0.09712863 115.95787612 0.07933818 124.80672359 0.06844234 C128.91518149 0.06321405 133.02361878 0.05611739 137.13206482 0.04481506 C141.09370693 0.03398426 145.05532917 0.02797727 149.01698494 0.02537727 C150.53172176 0.02352337 152.04645744 0.01990342 153.56118584 0.01452446 C155.67565677 0.00731145 157.79004459 0.00626368 159.90452576 0.00672913 C161.11031784 0.00450851 162.31610992 0.0022879 163.55844116 0 C166.26023865 0.12025452 166.26023865 0.12025452 167.26023865 1.12025452 C167.35828102 4.2047728 167.39014592 7.26691517 167.38049316 10.35183716 C167.3817748 11.82319765 167.3817748 11.82319765 167.38308233 13.32428259 C167.38474011 16.63788313 167.37921091 19.95143396 167.37376404 23.26502991 C167.3734822 25.62967935 167.37363982 27.99432888 167.37420654 30.35897827 C167.3744647 36.13073813 167.37011339 41.90248148 167.36376888 47.67423756 C167.35663493 54.38774567 167.35512499 61.10125139 167.35398071 67.81476276 C167.35178988 79.7880975 167.34512893 91.76142543 167.3356781 103.73475647 C167.3265048 115.36854519 167.31942357 127.00233206 167.31517029 138.63612366 C167.31490756 139.35273987 167.31464484 140.06935609 167.31437416 140.80768795 C167.31306916 144.4025944 167.31180544 147.99750087 167.31056225 151.59240735 C167.30018865 181.43502783 167.28249536 211.27764038 167.26023865 241.12025452 C164.46730317 242.51672226 162.1468263 242.27071666 159.02220154 242.29725647 C157.71066605 242.31009171 156.39913055 242.32292694 155.04785156 242.33615112 C153.6095365 242.34431694 152.17121718 242.35176097 150.7328949 242.35853577 C150.01032438 242.36261129 149.28775387 242.36668682 148.54328728 242.37088585 C144.72083191 242.39174178 140.89841243 242.40604706 137.07591248 242.41542053 C133.12335618 242.42650066 129.17136046 242.46091946 125.21900272 242.50059223 C122.1829929 242.52670105 119.14711801 242.53510706 116.11100578 242.53870201 C114.65370829 242.54358077 113.19641732 242.55523142 111.7392292 242.57374001 C109.70218007 242.598011 107.66485896 242.59475857 105.62767029 242.59022522 C104.46788162 242.59609146 103.30809296 242.6019577 102.11315918 242.60800171 C99.26023865 242.12025452 99.26023865 242.12025452 97.60447884 240.37846279 C96.07973538 237.8170245 95.8892633 236.45578707 95.8994751 233.50117493 C95.8953511 232.57853348 95.89122711 231.65589203 95.88697815 230.70529175 C95.89776398 229.70044235 95.9085498 228.69559296 95.91966248 227.66029358 C95.91900536 226.06470863 95.91900536 226.06470863 95.91833496 224.43688965 C95.92042556 220.91969979 95.94377004 217.40298614 95.9672699 213.88587952 C95.97286487 211.44779216 95.97713543 209.00970143 95.98013306 206.5716095 C95.99158952 200.15342401 96.02106388 193.73544208 96.054245 187.31733704 C96.08492844 180.76859796 96.09863472 174.219826 96.11375427 167.67103577 C96.14593256 154.82068849 96.19656246 141.97048233 96.26023865 129.12025452 C94.44781813 129.09338172 92.63528631 129.07391736 90.82273865 129.05775452 C89.30873474 129.04035217 89.30873474 129.04035217 87.7641449 129.02259827 C85.32002798 128.83412776 85.32002798 128.83412776 84.26023865 130.12025452 C83.88934904 131.92544378 83.56282561 133.7398688 83.26023865 135.55775452 C82.36787074 140.90499033 82.36787074 140.90499033 81.26023865 143.12025452 C79.08055115 143.46400452 79.08055115 143.46400452 76.38523865 143.62025452 C72.67985612 143.83631181 71.45131659 143.99286922 68.26023865 146.12025452 C67.96019314 149.09341184 67.85414086 151.86083949 67.87547302 154.83680725 C67.87010025 155.73936249 67.86472748 156.64191772 67.85919189 157.57182312 C67.8493924 159.53560682 67.84647627 161.49943393 67.84954834 163.46323967 C67.85400997 166.56869188 67.84007323 169.67356924 67.82115173 172.77896118 C67.78429211 179.37188278 67.7706464 185.96474502 67.76023865 192.55775452 C67.74817994 200.19216194 67.7267252 207.82629104 67.68023682 215.4605732 C67.66661861 218.52460633 67.67084647 221.58829197 67.67564392 224.65234375 C67.66630626 226.52633615 67.65613819 228.40032466 67.64500427 230.27430725 C67.6511525 231.12999802 67.65730072 231.98568878 67.66363525 232.86730957 C67.60277296 238.68259144 67.60277296 238.68259144 65.91488743 240.83923721 C63.34481732 242.82896719 61.0991501 242.49430907 57.89280701 242.49256897 C55.92077553 242.50191216 55.92077553 242.50191216 53.90890503 242.51144409 C52.47262696 242.50275693 51.03635259 242.49343905 49.6000824 242.48353577 C48.12942505 242.48301717 46.65876701 242.48353486 45.18811035 242.48504639 C42.10714866 242.48495669 39.02644877 242.47453093 35.94554138 242.45643616 C31.99193577 242.43372892 28.03871206 242.43320863 24.08505917 242.4399538 C21.04906811 242.44329117 18.0131645 242.43666846 14.97719002 242.42682457 C13.51910929 242.42296975 12.06101884 242.42182552 10.60293388 242.42341042 C8.5680257 242.42378027 6.53313023 242.40970169 4.49827576 242.39491272 C3.33928268 242.39030533 2.18028961 242.38569794 0.98617554 242.38095093 C-1.73976135 242.12025452 -1.73976135 242.12025452 -3.73976135 240.12025452 C-3.93579433 236.98874376 -4.00444834 233.94571454 -3.98699951 230.81311035 C-3.98941393 229.83613805 -3.99182834 228.85916576 -3.99431592 227.85258824 C-3.99998015 224.55819871 -3.9912693 221.26400076 -3.98268127 217.96961975 C-3.98375347 215.61629687 -3.98569123 213.26297424 -3.98843384 210.90965271 C-3.99329499 204.50285762 -3.9856109 198.09613183 -3.97548079 191.68934512 C-3.96673391 185.67657219 -3.96831786 179.66379577 -3.96875612 173.65101803 C-3.96925706 161.73816347 -3.96008609 149.82533573 -3.9455719 137.91249084 C-3.93148066 126.34087129 -3.92440123 114.76927535 -3.92506409 103.19764709 C-3.92510404 102.484846 -3.925144 101.77204491 -3.92518517 101.03764378 C-3.92522552 100.32610019 -3.92526588 99.61455659 -3.92530745 98.88145107 C-3.92596162 86.39054803 -3.92084712 73.89965447 -3.91251564 61.40875435 C-3.90897512 56.08139483 -3.9071513 50.75403999 -3.90662193 45.42667961 C-3.90562103 39.16001546 -3.89954521 32.89337633 -3.8894558 26.62672043 C-3.88652271 24.31957083 -3.88530705 22.01241835 -3.88588333 19.70526695 C-3.88637027 16.57028928 -3.8807556 13.43538284 -3.87347412 10.30041504 C-3.87502272 9.37475548 -3.87657133 8.44909592 -3.87816685 7.49538606 C-3.84981702 0.16897745 -3.84981702 0.16897745 0 0 Z " fill="#FEFEFE" transform="translate(814.7397613525391,19.879745483398438)"/>
<path d="M0 0 C0.91644287 0.00523682 1.83288574 0.01047363 2.77709961 0.01586914 C3.76645508 0.0190918 4.75581055 0.02231445 5.77514648 0.02563477 C6.81606445 0.03401367 7.85698242 0.04239258 8.92944336 0.05102539 C10.49662109 0.05779297 10.49662109 0.05779297 12.09545898 0.06469727 C14.68600996 0.07652627 17.27644895 0.0930085 19.86694336 0.11352539 C21.33229426 3.59436758 22.10510605 6.13507519 21.99194336 9.92602539 C21.97389648 10.7162207 21.95584961 11.50641602 21.93725586 12.32055664 C21.91405273 12.91223633 21.89084961 13.50391602 21.86694336 14.11352539 C22.54241211 14.09032227 23.21788086 14.06711914 23.91381836 14.04321289 C25.25186523 14.01614258 25.25186523 14.01614258 26.61694336 13.98852539 C27.49866211 13.96532227 28.38038086 13.94211914 29.28881836 13.91821289 C32.14269229 14.13441546 33.63953227 14.29109813 35.86694336 16.11352539 C36.47631836 19.15258789 36.47631836 19.15258789 36.61694336 22.73852539 C36.67366211 23.92704102 36.73038086 25.11555664 36.78881836 26.34008789 C36.81459961 27.25532227 36.84038086 28.17055664 36.86694336 29.11352539 C37.61459961 29.1509082 38.36225586 29.18829102 39.13256836 29.22680664 C40.60983398 29.32541992 40.60983398 29.32541992 42.11694336 29.42602539 C43.09147461 29.4840332 44.06600586 29.54204102 45.07006836 29.60180664 C48.22080931 30.17826902 49.66711912 30.79092026 51.86694336 33.11352539 C52.40600586 35.52368164 52.40600586 35.52368164 52.49194336 38.17602539 C52.49381114 42.11943713 52.49381114 42.11943713 54.86694336 45.11352539 C57.69230278 45.45797507 60.49243353 45.55614407 63.33569336 45.67211914 C64.17100586 45.8177832 65.00631836 45.96344727 65.86694336 46.11352539 C68.05688584 49.39843912 68.21971675 50.94448178 68.49194336 54.80102539 C68.6040918 56.29182617 68.6040918 56.29182617 68.71850586 57.81274414 C68.79198242 58.95163086 68.79198242 58.95163086 68.86694336 60.11352539 C69.62620117 60.1509082 70.38545898 60.18829102 71.16772461 60.22680664 C72.1615918 60.29254883 73.15545898 60.35829102 74.17944336 60.42602539 C75.65864258 60.51303711 75.65864258 60.51303711 77.16772461 60.60180664 C79.86694336 61.11352539 79.86694336 61.11352539 81.71069336 62.30102539 C83.34576435 64.86410964 83.16067256 66.791198 83.05444336 69.80102539 C83.01383789 71.29182617 83.01383789 71.29182617 82.97241211 72.81274414 C82.93760742 73.57200195 82.90280273 74.33125977 82.86694336 75.11352539 C83.77057617 75.21149414 84.67420898 75.30946289 85.60522461 75.41040039 C86.7847168 75.55993164 87.96420898 75.70946289 89.17944336 75.86352539 C90.35120117 76.00274414 91.52295898 76.14196289 92.73022461 76.28540039 C95.86694336 77.11352539 95.86694336 77.11352539 97.74194336 78.83227539 C99.1039594 81.59414126 99.3718408 83.79580246 99.55444336 86.86352539 C99.62018555 87.84836914 99.68592773 88.83321289 99.75366211 89.84790039 C99.79104492 90.59555664 99.82842773 91.34321289 99.86694336 92.11352539 C100.69838867 92.13930664 101.52983398 92.16508789 102.38647461 92.19165039 C103.4731543 92.24836914 104.55983398 92.30508789 105.67944336 92.36352539 C106.75838867 92.40993164 107.83733398 92.45633789 108.94897461 92.50415039 C111.86694336 93.11352539 111.86694336 93.11352539 113.74194336 94.83227539 C115.08313342 97.55191079 115.17350616 99.34726775 115.05444336 102.36352539 C115.01383789 103.70157227 115.01383789 103.70157227 114.97241211 105.06665039 C114.92020508 106.07985352 114.92020508 106.07985352 114.86694336 107.11352539 C116.84680418 107.00004921 118.82585933 106.87243189 120.80444336 106.73852539 C121.9065918 106.66891602 123.00874023 106.59930664 124.14428711 106.52758789 C125.04276367 106.39094727 125.94124023 106.25430664 126.86694336 106.11352539 C128.37628553 103.09484105 128.04205008 100.44055311 127.86694336 97.11352539 C127.20694336 96.12352539 126.54694336 95.13352539 125.86694336 94.11352539 C123.02759219 93.69726249 120.26566595 93.67402649 117.39819336 93.61743164 C114.86694336 93.11352539 114.86694336 93.11352539 113.59350586 91.40649414 C112.79988973 88.90190991 112.21799362 86.44779825 111.74194336 83.86352539 C111.57436523 82.97149414 111.40678711 82.07946289 111.23413086 81.16040039 C111.11295898 80.48493164 110.99178711 79.80946289 110.86694336 79.11352539 C110.10768555 79.08774414 109.34842773 79.06196289 108.56616211 79.03540039 C107.07536133 78.95032227 107.07536133 78.95032227 105.55444336 78.86352539 C104.56831055 78.81711914 103.58217773 78.77071289 102.56616211 78.72290039 C99.86694336 78.11352539 99.86694336 78.11352539 98.22151184 76.50819397 C96.39325767 73.27612201 96.49275265 70.89583006 96.49462891 67.18945312 C96.49097824 66.50118439 96.48732758 65.81291565 96.48356628 65.10379028 C96.47547727 62.8346469 96.48905506 60.56622127 96.50366211 58.29711914 C96.50418086 56.71818543 96.50366258 55.13925107 96.50215149 53.56031799 C96.50224113 50.25414364 96.51265578 46.94821352 96.53076172 43.64208984 C96.55346731 39.40276328 96.55398885 35.16379292 96.54724407 30.92442226 C96.54390421 27.66535776 96.55053417 24.4063746 96.56037331 21.14732552 C96.56422392 19.58400968 96.5653741 18.02068481 96.56378746 16.45736504 C96.56341694 14.27413532 96.57603211 12.09136402 96.59228516 9.90820312 C96.59919624 8.04433205 96.59919624 8.04433205 96.60624695 6.14280701 C96.86694336 3.11352539 96.86694336 3.11352539 98.86694336 0.11352539 C101.68226624 -0.25396729 101.68226624 -0.25396729 105.3203125 -0.24291992 C106.31320534 -0.24598648 106.31320534 -0.24598648 107.32615662 -0.24911499 C109.51841681 -0.25212804 111.7099286 -0.23363297 113.90209961 -0.21459961 C115.42142043 -0.21154307 116.94074404 -0.20966615 118.46006775 -0.20892334 C121.64536243 -0.20431718 124.83040473 -0.18987847 128.015625 -0.16772461 C132.10716646 -0.1394179 136.19850913 -0.12851115 140.2901392 -0.12404251 C143.4273021 -0.1198943 146.56442444 -0.11008227 149.7015667 -0.09816742 C151.21071483 -0.09245381 152.7198669 -0.08769873 154.22902107 -0.08390045 C156.33374073 -0.07705778 158.43829994 -0.06343574 160.54296875 -0.04760742 C161.74272842 -0.04077942 162.9424881 -0.03395142 164.17860413 -0.0269165 C166.86694336 0.11352539 166.86694336 0.11352539 167.86694336 1.11352539 C167.96942702 4.1808482 168.00578861 7.22580004 168.00065613 10.29368591 C168.00292168 11.26909822 168.00518724 12.24451053 168.00752145 13.24948078 C168.0138928 16.54458749 168.01303009 19.83965341 168.01220703 23.13476562 C168.01519656 25.4863185 168.01859861 27.83787088 168.02238464 30.18942261 C168.03124961 36.59632077 168.0335638 43.00320558 168.03420043 49.41010928 C168.03477599 54.07670703 168.03792427 58.7433025 168.04103691 63.40989916 C168.04934808 75.95023915 168.05307839 88.49057202 168.05236717 101.03091466 C168.05232722 101.74371575 168.05228726 102.45651684 168.05224609 103.19091797 C168.05220521 103.90458478 168.05216433 104.61825158 168.05212221 105.35354466 C168.05171562 116.92399302 168.06128745 128.49440887 168.07538446 140.06484782 C168.08972976 151.93228169 168.09665567 163.79969968 168.09579068 175.66714245 C168.09545807 182.33504359 168.09842578 189.00291256 168.10896873 195.67080498 C168.1186086 201.93911273 168.11875733 208.20734821 168.1114521 214.47565842 C168.11040113 216.78238975 168.11279923 219.08912549 168.11881256 221.39584923 C168.12646341 224.53277985 168.12193388 227.66945657 168.11418152 230.80638123 C168.11932508 231.72981007 168.12446864 232.65323891 168.12976807 233.60465044 C168.09521451 239.88525424 168.09521451 239.88525424 165.86694336 242.11352539 C163.14100647 242.3742218 163.14100647 242.3742218 159.62890625 242.38818359 C158.31737076 242.39771561 157.00583527 242.40724762 155.65455627 242.41706848 C154.21623712 242.41680706 152.77791794 242.41587005 151.33959961 242.41430664 C149.86990741 242.41819216 148.40021634 242.42252653 146.93052673 242.42729187 C143.84785322 242.4347603 140.76529421 242.43445845 137.68261719 242.42919922 C133.73013187 242.42340513 129.77811524 242.44033062 125.82570744 242.46354389 C122.78968053 242.47826907 119.75376679 242.4791546 116.71771049 242.47603416 C115.26044219 242.47654804 113.80316767 242.48179825 112.34593391 242.49184608 C110.30878389 242.50416755 108.27153942 242.49549162 106.234375 242.48583984 C104.494692 242.48678398 104.494692 242.48678398 102.71986389 242.48774719 C99.86694336 242.11352539 99.86694336 242.11352539 98.21118355 240.91876793 C96.38773424 238.46997322 96.49732031 236.89423179 96.50617981 233.85542297 C96.50205582 232.76587311 96.49793182 231.67632324 96.49368286 230.55375671 C96.50446869 229.35829727 96.51525452 228.16283783 96.52636719 226.93115234 C96.52571007 225.04317932 96.52571007 225.04317932 96.52503967 223.11706543 C96.52417802 219.66474567 96.54183095 216.21273785 96.56276155 212.76049066 C96.58150018 209.15302116 96.58327656 205.54554471 96.58683777 201.93803406 C96.59616654 195.10632481 96.62079148 188.27475939 96.65088624 181.44311351 C96.68440444 173.66570315 96.70090975 165.88828596 96.71597254 158.11082137 C96.74734038 142.11163938 96.80011694 126.11260092 96.86694336 110.11352539 C96.10768555 110.06454102 95.34842773 110.01555664 94.56616211 109.96508789 C93.57229492 109.89032227 92.57842773 109.81555664 91.55444336 109.73852539 C90.56831055 109.66891602 89.58217773 109.59930664 88.56616211 109.52758789 C85.86694336 109.11352539 85.86694336 109.11352539 82.86694336 107.11352539 C82.20678711 104.58227539 82.20678711 104.58227539 81.80444336 101.61352539 C81.3570299 97.37957895 81.3570299 97.37957895 78.86694336 94.11352539 C76.95513787 93.83347481 76.95513787 93.83347481 74.86694336 93.92602539 C74.16569336 93.9324707 73.46444336 93.93891602 72.74194336 93.94555664 C70.77637963 94.00646406 70.77637963 94.00646406 68.86694336 95.11352539 C68.86455501 95.84682194 68.86216665 96.58011848 68.85970592 97.33563614 C68.80059348 115.17083 68.7250676 133.00588503 68.63122845 150.84093094 C68.58624531 159.46580026 68.5468365 168.09062807 68.52050781 176.71557617 C68.49754807 184.23228209 68.46417285 191.74885687 68.4182418 199.26545882 C68.39428212 203.24618848 68.3755714 207.22678805 68.36932945 211.2075882 C68.36329091 214.95377359 68.34333616 218.69962601 68.31266785 222.44568825 C68.30386777 223.82110853 68.30016912 225.19657228 68.3019352 226.57201958 C68.30358467 228.44927602 68.28514262 230.32651814 68.26567078 232.20367432 C68.26106181 233.25451832 68.25645285 234.30536232 68.25170422 235.38805008 C67.81157346 238.50574122 67.07572911 239.89384924 64.86694336 242.11352539 C62.01402283 242.60800171 62.01402283 242.60800171 58.49951172 242.59936523 C56.52748024 242.60859512 56.52748024 242.60859512 54.51560974 242.61801147 C53.07932842 242.60421654 51.64305404 242.58968264 50.20678711 242.57446289 C48.7361314 242.57207862 47.26547261 242.57117311 45.79481506 242.57168579 C42.71376459 242.5685579 39.63317951 242.55199268 36.55224609 242.52514648 C32.59862483 242.4911364 28.6455143 242.48351871 24.69176388 242.48503685 C21.6557577 242.48449364 18.61986366 242.47353495 15.58389473 242.45903397 C14.12581799 242.45266051 12.66772852 242.44872579 11.2096386 242.44724655 C9.17470621 242.44292123 7.13982115 242.42384935 5.10498047 242.40405273 C3.9459874 242.39642914 2.78699432 242.38880554 1.59288025 242.38095093 C-1.13305664 242.11352539 -1.13305664 242.11352539 -3.13305664 240.11352539 C-3.32908962 236.98201463 -3.39774362 233.93898542 -3.3802948 230.80638123 C-3.38270922 229.82940893 -3.38512363 228.85243663 -3.38761121 227.84585911 C-3.39327543 224.55146958 -3.38456459 221.25727163 -3.37597656 217.96289062 C-3.37704876 215.60956774 -3.37898651 213.25624511 -3.38172913 210.90292358 C-3.38659027 204.4961285 -3.37890619 198.0894027 -3.36877608 191.682616 C-3.36002919 185.66984306 -3.36161315 179.65706664 -3.36205141 173.6442889 C-3.36255235 161.73143434 -3.35338138 149.8186066 -3.33886719 137.90576172 C-3.32477594 126.33414216 -3.31769652 114.76254622 -3.31835938 103.19091797 C-3.31839933 102.47811688 -3.31843929 101.76531578 -3.31848045 101.03091466 C-3.31852081 100.31937106 -3.31856116 99.60782747 -3.31860274 98.87472194 C-3.31925691 86.3838189 -3.31414241 73.89292534 -3.30581093 61.40202522 C-3.3022704 56.0746657 -3.30044658 50.74731086 -3.29991722 45.41995049 C-3.29891632 39.15328634 -3.2928405 32.88664721 -3.28275108 26.6199913 C-3.279818 24.3128417 -3.27860234 22.00568922 -3.27917862 19.69853783 C-3.27966556 16.56356015 -3.27405089 13.42865371 -3.26676941 10.29368591 C-3.26831801 9.36802635 -3.26986661 8.44236679 -3.27146214 7.48865694 C-3.24315239 0.17260683 -3.24315239 0.17260683 0 0 Z " fill="#FEFEFE" transform="translate(21.133056640625,19.886474609375)"/>
<path d="M0 0 C0.97926956 -0.0021904 1.95853912 -0.0043808 2.96748352 -0.00663757 C6.20587895 -0.00894986 9.4433663 0.01731534 12.68164062 0.04418945 C14.9307832 0.04911266 17.17992986 0.05241199 19.42907715 0.05415344 C24.14344358 0.0617968 28.85750679 0.08236762 33.57177734 0.11328125 C39.61798562 0.15285614 45.6639965 0.17088996 51.71031952 0.18059063 C57.47162002 0.19056191 63.23287225 0.21045247 68.99414062 0.23168945 C70.09578049 0.2350852 71.19742035 0.23848095 72.33244324 0.2419796 C75.4469477 0.25354917 78.5613271 0.27206981 81.67578125 0.29296875 C82.59954056 0.29565765 83.52329987 0.29834656 84.47505188 0.30111694 C85.32459946 0.30827225 86.17414703 0.31542755 87.04943848 0.32279968 C87.78536476 0.32707316 88.52129105 0.33134665 89.27951813 0.33574963 C91.33789062 0.4699707 91.33789062 0.4699707 95.33789062 1.4699707 C96.32789063 7.9049707 96.32789063 7.9049707 97.33789062 14.4699707 C99.25601563 14.6762207 101.17414063 14.8824707 103.15039062 15.0949707 C109.02285457 16.0829264 109.02285457 16.0829264 111.52539062 19.1574707 C112.36710647 22.58908144 112.9251867 25.96198736 113.33789062 29.4699707 C115.32772956 31.45980964 119.1933168 30.84388644 121.89257812 30.9934082 C124.79173759 31.55842011 125.54506423 32.16581289 127.33789062 34.4699707 C127.71541405 36.6111145 127.71541405 36.6111145 127.71884155 39.13842773 C127.72730103 40.09742981 127.7357605 41.05643188 127.74447632 42.04449463 C127.73536728 43.62022247 127.73536728 43.62022247 127.72607422 45.2277832 C127.73395966 46.88907257 127.73395966 46.88907257 127.74200439 48.58392334 C127.75523636 52.25441482 127.74645469 55.92447461 127.73632812 59.5949707 C127.73834793 62.13940515 127.74125859 64.68383903 127.74502563 67.22827148 C127.74945334 72.56475868 127.74328852 77.90109034 127.72900391 83.23754883 C127.71267702 89.4082417 127.71796545 95.57863722 127.73448312 101.74932289 C127.74973365 107.6840424 127.74812433 113.61866945 127.73933792 119.55340576 C127.73733255 122.0796513 127.73980693 124.60590439 127.74677658 127.13214111 C127.75437083 130.65901981 127.74281461 134.18532255 127.72607422 137.7121582 C127.73214691 138.76264343 127.7382196 139.81312866 127.74447632 140.89544678 C127.73178711 142.33394989 127.73178711 142.33394989 127.71884155 143.80151367 C127.71771048 144.63552704 127.7165794 145.46954041 127.71541405 146.3288269 C127.24761559 148.98197026 126.47808367 149.87411174 124.33789062 151.4699707 C121.63867188 151.76293945 121.63867188 151.76293945 118.65039062 151.6574707 C117.65652344 151.63040039 116.66265625 151.60333008 115.63867188 151.57543945 C114.87941406 151.54063477 114.12015625 151.50583008 113.33789062 151.4699707 C113.21671875 152.38520508 113.09554687 153.30043945 112.97070312 154.2434082 C112.71933594 156.02618164 112.71933594 156.02618164 112.46289062 157.8449707 C112.21925781 159.62000977 112.21925781 159.62000977 111.97070312 161.4309082 C111.33789062 164.4699707 111.33789062 164.4699707 109.33789062 166.4699707 C107.06054688 166.84887695 107.06054688 166.84887695 104.40039062 167.0324707 C101.42717915 167.24703236 99.18730989 167.52016428 96.33789062 168.4699707 C96.36109375 169.14543945 96.38429688 169.8209082 96.40820312 170.5168457 C96.42625 171.40887695 96.44429687 172.3009082 96.46289062 173.2199707 C96.48609375 174.10168945 96.50929688 174.9834082 96.53320312 175.8918457 C96.32727328 178.6101196 95.61047764 180.10093329 94.33789062 182.4699707 C80.69946128 182.56253175 67.0611063 182.63366518 53.42242718 182.67721939 C47.08985511 182.69812015 40.75749747 182.72648364 34.42504883 182.77172852 C28.31722205 182.81509683 22.2096019 182.83908904 16.10163307 182.84947968 C13.76793984 182.85688722 11.43425828 182.87135185 9.10065269 182.89289093 C5.8392301 182.92180444 2.57866819 182.92593167 -0.68286133 182.92407227 C-1.65390305 182.93845337 -2.62494476 182.95283447 -3.62541199 182.96765137 C-10.14607237 182.92725652 -10.14607237 182.92725652 -12.75382996 180.61639404 C-13.88980955 177.93187531 -14.17654807 175.6274007 -14.34960938 172.7199707 C-14.41535156 171.73512695 -14.48109375 170.7502832 -14.54882812 169.7355957 C-14.58621094 168.98793945 -14.62359375 168.2402832 -14.66210938 167.4699707 C-15.80099609 167.39649414 -15.80099609 167.39649414 -16.96289062 167.3215332 C-17.95675781 167.24676758 -18.950625 167.17200195 -19.97460938 167.0949707 C-20.96074219 167.02536133 -21.946875 166.95575195 -22.96289062 166.8840332 C-25.66210938 166.4699707 -25.66210938 166.4699707 -28.66210938 164.4699707 C-29.39257812 161.6496582 -29.39257812 161.6496582 -29.84960938 158.3449707 C-30.00816406 157.24926758 -30.16671875 156.15356445 -30.33007812 155.0246582 C-30.43964844 154.18161133 -30.54921875 153.33856445 -30.66210938 152.4699707 C-31.43296875 152.40938477 -32.20382813 152.34879883 -32.99804688 152.28637695 C-34.0009375 152.20258789 -35.00382813 152.11879883 -36.03710938 152.0324707 C-37.53371094 151.9106543 -37.53371094 151.9106543 -39.06054688 151.78637695 C-41.66210938 151.4699707 -41.66210938 151.4699707 -43.66210938 150.4699707 C-43.70878714 135.24962383 -43.74407746 120.02928027 -43.76573372 104.80887794 C-43.77605543 97.74210851 -43.79013279 90.6753835 -43.81298828 83.60864258 C-43.83501765 76.79409741 -43.84666468 69.97959851 -43.85186386 63.16501999 C-43.85557097 60.55979051 -43.86280955 57.95456368 -43.87356949 55.34935379 C-43.88800069 51.71193135 -43.89009083 48.07470213 -43.88916016 44.43725586 C-43.89635071 43.35041 -43.90354126 42.26356415 -43.91094971 41.14378357 C-43.90820038 40.15657822 -43.90545105 39.16937286 -43.90261841 38.1522522 C-43.90446199 37.29129755 -43.90630558 36.4303429 -43.90820503 35.54329872 C-43.66210938 33.4699707 -43.66210938 33.4699707 -41.66210938 31.4699707 C-39.31445312 31.09106445 -39.31445312 31.09106445 -36.59960938 30.9074707 C-33.32371373 30.93015117 -33.32371373 30.93015117 -30.66210938 29.4699707 C-30.5050005 28.03562484 -30.38606217 26.59699826 -30.28710938 25.1574707 C-29.98992218 22.44832949 -29.67178683 20.49274118 -28.59960938 17.9699707 C-24.67078393 14.92829939 -19.43765981 15.4699707 -14.66210938 15.4699707 C-14.63632813 14.72231445 -14.61054688 13.9746582 -14.58398438 13.2043457 C-14.52726562 12.21950195 -14.47054687 11.2346582 -14.41210938 10.2199707 C-14.36570313 9.24543945 -14.31929687 8.2709082 -14.27148438 7.2668457 C-12.56413464 -0.56945181 -6.70641878 -0.093 0 0 Z M42.33789062 18.4699707 C42.31662109 19.60885742 42.31662109 19.60885742 42.29492188 20.77075195 C41.90643936 28.86588768 41.90643936 28.86588768 39.33789062 31.5949707 C35.36154891 32.75473704 31.46346406 33.20931356 27.33789062 33.4699707 C26.39116398 36.65768058 26.22631447 39.49134003 26.25559998 42.81036377 C26.26263947 43.89287415 26.26967896 44.97538452 26.27693176 46.09069824 C26.28987778 47.27321167 26.30282379 48.4557251 26.31616211 49.67407227 C26.32576965 50.9231134 26.3353772 52.17215454 26.34527588 53.45904541 C26.37259917 56.88024135 26.40449742 60.30133732 26.43842578 63.72247028 C26.47281712 67.29922272 26.50136546 70.87602166 26.53053284 74.45281982 C26.58663952 81.2242601 26.64800321 87.99564213 26.71125418 94.76701903 C26.78301415 102.47672537 26.84891581 110.18647829 26.91432464 117.89624071 C27.04899333 133.75421186 27.19122916 149.61210568 27.33789062 165.4699707 C31.29789062 165.4699707 35.25789063 165.4699707 39.33789062 165.4699707 C41.38753964 161.37067267 41.70380259 158.83066548 41.99414062 154.39575195 C42.10757813 153.76024414 42.22101563 153.12473633 42.33789062 152.4699707 C45.18241292 151.04770955 48.00201286 151.09235333 51.14648438 150.84887695 C53.62162707 150.5731883 53.62162707 150.5731883 56.33789062 148.4699707 C56.79391436 146.12426525 56.79391436 146.12426525 56.71884155 143.34558105 C56.72730103 142.26029617 56.7357605 141.17501129 56.74447632 140.05683899 C56.73840363 138.86092636 56.73233093 137.66501373 56.72607422 136.43286133 C56.73395966 134.54992622 56.73395966 134.54992622 56.74200439 132.62895203 C56.75570922 129.18061113 56.75036651 125.73253877 56.74086714 122.28419304 C56.73328682 118.68029923 56.7403116 115.07642886 56.74502563 111.47253418 C56.75048796 105.419717 56.74327914 99.36700952 56.72900391 93.31420898 C56.71267639 86.31021854 56.71796457 79.30649006 56.73448312 72.30250597 C56.74808448 66.2956672 56.7500243 60.28890743 56.74216712 54.28205824 C56.73748312 50.69151991 56.73688553 47.10110482 56.74677658 43.51057434 C56.75702875 39.50925102 56.74283104 35.50838134 56.72607422 31.50708008 C56.73214691 30.31116745 56.7382196 29.11525482 56.74447632 27.88310242 C56.73601685 26.79781754 56.72755737 25.71253265 56.71884155 24.59436035 C56.71714494 23.17408665 56.71714494 23.17408665 56.71541405 21.72512054 C56.59083132 20.9809211 56.46624859 20.23672165 56.33789062 19.4699707 C53.31244729 17.45300848 52.7272168 17.21185974 49.33789062 17.2824707 C48.31695312 17.29213867 48.31695312 17.29213867 47.27539062 17.30200195 C45.12030854 17.41299324 45.12030854 17.41299324 42.33789062 18.4699707 Z " fill="#FEFEFE" transform="translate(268.662109375,79.530029296875)"/>
<path d="M0 0 C0.74055427 0.00514356 1.48110854 0.01028713 2.24410385 0.01558656 C3.42167185 0.01196493 3.42167185 0.01196493 4.62302911 0.00827014 C7.267917 0.00260986 9.91256584 0.0113137 12.55744308 0.01990479 C14.4477178 0.0188325 16.33799219 0.0168946 18.22826523 0.01415223 C23.37271024 0.00929269 28.51706892 0.01697311 33.66150349 0.02710527 C39.03424067 0.03586656 44.406975 0.03412871 49.77971786 0.03374451 C58.80264624 0.03468195 67.82554106 0.04337711 76.84845871 0.05701417 C87.29582991 0.07274528 97.74316433 0.07801216 108.19054651 0.07727861 C118.22214154 0.07666927 128.25372452 0.08176581 138.28531593 0.09007043 C142.56322648 0.09361045 146.84113278 0.0954347 151.11904472 0.09596413 C156.15126474 0.09696519 161.18345362 0.10304226 166.21566337 0.11313027 C168.06807143 0.1160628 169.92048308 0.11727913 171.77289337 0.11670274 C174.2904301 0.11621562 176.80787823 0.12183217 179.32540268 0.12911195 C180.06818767 0.12756334 180.81097266 0.12601474 181.57626629 0.12441921 C186.60708284 0.14864611 186.60708284 0.14864611 187.72126144 1.26282471 C187.83122382 3.33800014 187.87039002 5.41695031 187.88239425 7.49500245 C187.88735916 8.14542512 187.89232406 8.79584779 187.89743942 9.46598023 C187.91209209 11.62613691 187.91886782 13.78622018 187.92438644 15.94641846 C187.93013496 17.44235458 187.93589272 18.93829065 187.94165939 20.43422669 C187.95217796 23.57411769 187.95801513 26.71398302 187.96149582 29.85388917 C187.96698507 33.88381658 187.99101833 37.91340687 188.01946777 41.94322842 C188.03806015 45.03410057 188.0432979 48.12489094 188.04483169 51.21581429 C188.04786604 52.70182931 188.05592078 54.18784263 188.06901687 55.67380303 C188.08600881 57.74988303 188.08421477 59.82513179 188.07770675 61.90125245 C188.0831752 63.67543801 188.0831752 63.67543801 188.08875412 65.48546571 C187.96748153 66.40199418 187.84620895 67.31852265 187.72126144 68.26282471 C182.84999827 71.5103335 177.44536117 70.59067906 171.72126144 70.57532471 C170.51985519 70.591438 169.31844894 70.60755128 168.08063644 70.62415284 C166.93079269 70.62479737 165.78094894 70.6254419 164.59626144 70.62610596 C163.54180832 70.62908692 162.48735519 70.63206788 161.40094894 70.63513917 C158.72126144 70.26282471 158.72126144 70.26282471 156.88605636 68.89514893 C155.27776816 66.64132061 155.21178728 64.81692267 155.03376144 62.07532471 C154.96801925 61.17427003 154.90227707 60.27321534 154.83454269 59.34485596 C154.77846847 58.3142505 154.77846847 58.3142505 154.72126144 57.26282471 C151.46691805 56.15158551 148.22249506 55.12382425 144.90876144 54.20032471 C141.72126144 53.26282471 141.72126144 53.26282471 140.72126144 52.26282471 C140.56129978 49.67129364 140.46187448 47.10330451 140.40485519 44.50891846 C140.38407409 43.73347184 140.363293 42.95802521 140.34188217 42.15908021 C140.27630342 39.67292163 140.21746345 37.18665426 140.15876144 34.70032471 C140.11558411 33.01867267 140.07197008 31.33703178 140.02790207 29.65540284 C139.92061365 25.52465601 139.81937012 21.39379936 139.72126144 17.26282471 C138.28485973 17.06708863 136.8470664 16.88154655 135.40876144 16.70032471 C134.60825363 16.59591065 133.80774582 16.49149659 132.98298019 16.38391846 C130.55309029 16.11527293 130.55309029 16.11527293 127.72126144 17.26282471 C126.42250642 21.15908978 126.57463742 24.85630791 126.57650131 28.9174878 C126.57121104 30.25960462 126.57121104 30.25960462 126.5658139 31.6288349 C126.55510507 34.63899814 126.55144217 37.64912975 126.54767746 40.65930909 C126.541374 42.81249344 126.53460843 44.96567648 126.52741379 47.11885804 C126.51273141 51.76131133 126.50101185 56.40375954 126.49146599 61.0462262 C126.47603941 68.3815928 126.45209163 75.71691592 126.42656845 83.05225343 C126.35529292 103.91294331 126.29551773 124.77365792 126.2444548 145.63440675 C126.21618891 157.15108515 126.18083004 168.66772013 126.13780105 180.18435305 C126.11096828 187.48181723 126.09310045 194.77923227 126.0817638 202.07673615 C126.07266225 206.61001095 126.05531242 211.14322585 126.03558487 215.67646569 C126.02808784 217.78442353 126.02402702 219.8923967 126.02358955 222.00036782 C126.02251288 224.86975232 126.00931805 227.73882937 125.99300522 230.60816163 C125.99562207 231.44949442 125.99823892 232.29082721 126.00093508 233.15765494 C125.96622966 237.04426534 125.92715725 238.95398101 123.72126144 242.26282471 C119.98324844 243.40883222 116.36377116 243.36106517 112.47809738 243.30042237 C111.2404161 243.28355378 110.00273483 243.26668519 108.72754806 243.24930543 C107.38690617 243.22542764 106.04626903 243.20128195 104.70563644 243.17688721 C103.3251281 243.15510336 101.94461444 243.13365446 100.56409591 243.11252564 C97.67923996 243.06714944 94.79448226 243.01793265 91.909738 242.96594971 C88.20515547 242.89947553 84.50049798 242.84230163 80.79572052 242.7879197 C77.94932593 242.7451812 75.10302509 242.69773552 72.2567305 242.64882249 C70.88994795 242.62587594 69.52314041 242.60437244 68.15631241 242.58431596 C66.2530796 242.55565117 64.3499556 242.52001444 62.44684738 242.48401612 C61.36272568 242.46545563 60.27860397 242.44689515 59.16163009 242.42777222 C56.72126144 242.26282471 56.72126144 242.26282471 55.72126144 241.26282471 C55.61537035 238.43991028 55.57521915 235.64108681 55.57650131 232.81743592 C55.57121104 231.4728154 55.57121104 231.4728154 55.5658139 230.10103083 C55.55507102 227.07316993 55.55143627 224.04534043 55.54767746 221.01746339 C55.54137648 218.85634446 55.53461119 216.69522685 55.52741379 214.53411072 C55.51271218 209.86816079 55.50100034 205.20221599 55.49146599 200.53625268 C55.47605707 193.1629661 55.45210833 185.78972301 55.42656845 178.41646546 C55.35524935 157.44560205 55.29555576 136.47471359 55.2444548 115.50379151 C55.21617925 103.93108441 55.18081217 92.35842042 55.13780105 80.7857585 C55.11097623 73.45177691 55.09310313 66.11784414 55.0817638 58.78382307 C55.07265552 54.22427723 55.05530192 49.66479078 55.03558487 45.10527962 C55.02809389 42.98645555 55.02402738 40.86761627 55.02358955 38.748779 C55.02251118 35.86212222 55.00930062 32.97576947 54.99300522 30.08916444 C54.99562207 29.2454893 54.99823892 28.40181416 55.00093508 27.5325731 C55.04471036 22.04948145 55.04471036 22.04948145 52.72126144 17.26282471 C48.42680824 15.994009 45.06003274 16.46899924 40.72126144 17.26282471 C40.73697189 18.2770752 40.75268234 19.29132569 40.76886886 20.33631104 C40.82316463 24.09892559 40.85760995 27.86150549 40.88605636 31.62439698 C40.90114387 33.25303694 40.9216165 34.88163628 40.9475798 36.51013917 C40.98396593 38.85098007 41.00098764 41.1912839 41.01423019 43.53235596 C41.02971405 44.2605806 41.0451979 44.98880524 41.06115097 45.7390973 C41.06282955 50.78003654 41.06282955 50.78003654 39.33771652 53.21839112 C37.24668258 54.56946244 35.69659221 54.69743262 33.22126144 54.82532471 C29.71692418 55.01806326 28.79176707 55.21582096 25.72126144 57.26282471 C25.25068162 59.59159855 25.25068162 59.59159855 25.22126144 62.20032471 C25.05908254 66.78863612 25.05908254 66.78863612 23.56305832 68.88855714 C20.96228177 70.82914186 19.06817531 70.65092294 15.84626144 70.66126221 C14.69641769 70.6651294 13.54657394 70.66899659 12.36188644 70.67298096 C11.16048019 70.6613794 9.95907394 70.64977784 8.72126144 70.63782471 C7.51985519 70.64942628 6.31844894 70.66102784 5.08063644 70.67298096 C3.35587082 70.66718018 3.35587082 70.66718018 1.59626144 70.66126221 C0.54180832 70.65787843 -0.51264481 70.65449464 -1.59905106 70.65100831 C-4.27873856 70.26282471 -4.27873856 70.26282471 -5.92294937 69.13079041 C-7.8964556 66.41175269 -7.65289225 64.32428705 -7.65105301 60.98718995 C-7.6603962 59.0451896 -7.6603962 59.0451896 -7.66992813 57.06395692 C-7.66124098 55.64977352 -7.65192309 54.23559387 -7.64201981 52.82141846 C-7.6415012 51.37318137 -7.64201892 49.92494356 -7.64353043 48.47670716 C-7.64344073 45.44282228 -7.63301572 42.40920327 -7.6149202 39.37537354 C-7.59221264 35.48230036 -7.59169276 31.58961501 -7.59843785 27.6964938 C-7.60177531 24.70682535 -7.59515234 21.7172457 -7.58530861 18.72759408 C-7.58145397 17.29184212 -7.58030949 15.85608029 -7.58189446 14.42032403 C-7.58226433 12.41654852 -7.56818521 10.41278592 -7.55339676 8.40906495 C-7.54878937 7.26783677 -7.54418198 6.12660859 -7.53943497 4.95079774 C-7.04991157 -0.09655093 -4.47374359 0.03060775 0 0 Z " fill="#FEFEFE" transform="translate(598.2787385582924,19.737175285816193)"/>
<path d="M0 0 C1.05676186 -0.00143509 1.05676186 -0.00143509 2.13487244 -0.00289917 C3.62857146 -0.00357958 5.12227345 -0.00173496 6.6159668 0.00244141 C8.86969927 0.00773581 11.12322731 0.00252096 13.37695312 -0.00390625 C20.92310397 -0.00704303 28.34058232 0.19633387 35.83984375 1.1328125 C36.87702139 4.24434542 37.02457773 6.59271829 37.12109375 9.859375 C37.17716797 11.53 37.17716797 11.53 37.234375 13.234375 C37.30492115 15.59113885 37.3752321 17.94790975 37.4453125 20.3046875 C37.50138672 21.97144531 37.50138672 21.97144531 37.55859375 23.671875 C37.58888672 24.69490723 37.61917969 25.71793945 37.65039062 26.77197266 C37.57957575 29.0886374 37.57957575 29.0886374 38.83984375 30.1328125 C40.29543745 30.23139853 41.75592294 30.26253393 43.21484375 30.2578125 C44.00632812 30.26039062 44.7978125 30.26296875 45.61328125 30.265625 C48.01327871 30.21898916 48.01327871 30.21898916 50.83984375 29.1328125 C50.81664062 28.36195312 50.7934375 27.59109375 50.76953125 26.796875 C50.75148438 25.79398438 50.7334375 24.79109375 50.71484375 23.7578125 C50.69164062 22.76007813 50.6684375 21.76234375 50.64453125 20.734375 C50.83984375 18.1328125 50.83984375 18.1328125 52.83984375 16.1328125 C55.66015625 15.71875 55.66015625 15.71875 58.96484375 15.5078125 C60.06054688 15.43304688 61.15625 15.35828125 62.28515625 15.28125 C63.12820313 15.23226562 63.97125 15.18328125 64.83984375 15.1328125 C64.865625 14.38515625 64.89140625 13.6375 64.91796875 12.8671875 C65.00304687 11.38992187 65.00304687 11.38992187 65.08984375 9.8828125 C65.13625 8.90828125 65.18265625 7.93375 65.23046875 6.9296875 C66.0277722 3.2702691 66.7713357 2.31474121 69.83984375 0.1328125 C73.2655759 -0.44205538 76.65168437 -0.35552841 80.1171875 -0.29296875 C81.62243736 -0.28803658 81.62243736 -0.28803658 83.15809631 -0.28300476 C86.36494906 -0.26725335 89.57076036 -0.22319185 92.77734375 -0.1796875 C94.9329342 -0.16819663 97.08853447 -0.15841133 99.24414062 -0.15039062 C101.30600023 -0.13696181 103.36785074 -0.12203753 105.4296875 -0.10546875 C106.8814463 -0.09438835 106.8814463 -0.09438835 108.36253357 -0.08308411 C109.27019974 -0.07024887 110.17786591 -0.05741364 111.11303711 -0.04418945 C112.30406288 -0.02942314 112.30406288 -0.02942314 113.51914978 -0.01435852 C116.05751203 0.14661633 118.38308587 0.46750775 120.83984375 1.1328125 C122.12431294 3.70175088 122.16961519 5.89857587 122.40234375 8.7578125 C122.48613281 9.76070312 122.56992187 10.76359375 122.65625 11.796875 C122.71683594 12.56773438 122.77742187 13.33859375 122.83984375 14.1328125 C123.68289063 14.24238281 124.5259375 14.35195312 125.39453125 14.46484375 C126.49023438 14.62339844 127.5859375 14.78195313 128.71484375 14.9453125 C129.80539062 15.09613281 130.8959375 15.24695313 132.01953125 15.40234375 C134.83984375 16.1328125 134.83984375 16.1328125 136.83984375 19.1328125 C137.10054016 21.03663635 137.10054016 21.03663635 137.11450195 23.20532227 C137.12403397 24.01949112 137.13356598 24.83365997 137.14338684 25.67250061 C137.14201973 26.98510109 137.14201973 26.98510109 137.140625 28.32421875 C137.14491013 29.2252684 137.14919525 30.12631805 137.15361023 31.05467224 C137.15935163 32.95855875 137.15985519 34.8624672 137.15551758 36.76635742 C137.15235198 39.68771454 137.1758383 42.60806459 137.20117188 45.52929688 C137.20344423 47.37760288 137.20414866 49.22591163 137.203125 51.07421875 C137.21233475 51.95130997 137.22154449 52.82840118 137.23103333 53.73207092 C137.2121582 56.18969727 137.2121582 56.18969727 136.83984375 60.1328125 C133.45650049 62.38837468 132.28011444 62.38914232 128.31445312 62.4074707 C127.18317993 62.41700272 126.05190674 62.42653473 124.88635254 62.43635559 C123.05348694 62.43498848 123.05348694 62.43498848 121.18359375 62.43359375 C119.92977905 62.43787888 118.67596436 62.442164 117.38415527 62.44657898 C114.73105891 62.45232657 112.07835108 62.45375259 109.42529297 62.44848633 C106.02546159 62.44268717 102.6261742 62.45963444 99.2264328 62.482831 C95.98299031 62.50110187 92.73957847 62.49738333 89.49609375 62.49609375 C88.27418335 62.5053035 87.05227295 62.51451324 85.79333496 62.52400208 C84.66206177 62.51777328 83.53078857 62.51154449 82.36523438 62.50512695 C81.36834595 62.50575638 80.37145752 62.5063858 79.34436035 62.5070343 C76.83984375 62.1328125 76.83984375 62.1328125 75.02153015 60.77999878 C73.2405132 58.2973886 73.40188404 56.17646438 73.328125 53.15234375 C73.29267578 51.98896484 73.25722656 50.82558594 73.22070312 49.62695312 C73.19814453 48.41201172 73.17558594 47.19707031 73.15234375 45.9453125 C73.11818359 44.71876953 73.08402344 43.49222656 73.04882812 42.22851562 C72.96625599 39.19693873 72.90137645 36.16488941 72.83984375 33.1328125 C68.87984375 33.1328125 64.91984375 33.1328125 60.83984375 33.1328125 C60.8317569 34.95524979 60.82367004 36.77768707 60.81533813 38.65534973 C60.73797916 55.79878968 60.65038478 72.94215009 60.55231667 90.0854845 C60.50215849 98.89982677 60.45571598 107.71415958 60.41796875 116.52856445 C60.38506543 124.20967242 60.3452435 131.89070772 60.29705369 139.57173556 C60.27177212 143.64015981 60.24999579 147.70853576 60.23649979 151.77701759 C60.2236944 155.60439014 60.20165666 159.43159717 60.17246056 163.25887871 C60.16337282 164.66536294 60.15769176 166.07187384 60.15563011 167.47838593 C60.15231618 169.39540288 60.13567825 171.31238314 60.11831665 173.22932434 C60.11002051 174.84015758 60.11002051 174.84015758 60.10155678 176.48353291 C59.83984375 179.1328125 59.83984375 179.1328125 57.83984375 182.1328125 C55.06921387 182.51376343 55.06921387 182.51376343 51.49414062 182.52099609 C50.51828758 182.52888153 50.51828758 182.52888153 49.52272034 182.53692627 C47.36776874 182.55015277 45.21355313 182.54137959 43.05859375 182.53125 C41.56408547 182.53326999 40.06957814 182.53618081 38.57507324 182.53994751 C35.44106676 182.54437443 32.30731657 182.53792827 29.17333984 182.52392578 C25.15122834 182.50683336 21.12971733 182.51667263 17.10762787 182.53464317 C14.0210109 182.54547129 10.93453687 182.54203922 7.84791565 182.5342598 C6.36470977 182.53225508 4.88149102 182.53472657 3.39830017 182.54169846 C1.32703153 182.54929739 -0.74325766 182.53773251 -2.81445312 182.52099609 C-3.99422729 182.51860931 -5.17400146 182.51622253 -6.38952637 182.51376343 C-7.30383423 182.38804962 -8.21814209 182.26233582 -9.16015625 182.1328125 C-11.63268469 178.42401984 -11.40927398 176.57813153 -11.40739441 172.14855957 C-11.40980882 171.43349133 -11.41222324 170.71842309 -11.41471082 169.98168612 C-11.42035806 167.57949543 -11.41167706 165.17756947 -11.40307617 162.77539062 C-11.4041488 161.05569893 -11.4060872 159.33600759 -11.40882874 157.61631775 C-11.41368328 152.94078767 -11.40601376 148.26535278 -11.39587569 143.58983421 C-11.38710473 138.70250936 -11.38885245 133.81518757 -11.38923645 128.92785645 C-11.38829935 120.71962894 -11.37960928 112.51143836 -11.3659668 104.30322266 C-11.3502408 94.80619581 -11.34496867 85.30920943 -11.34570235 75.81217051 C-11.34631225 66.68560123 -11.34121027 57.55904517 -11.33291054 48.43247986 C-11.32937529 44.54418332 -11.32754694 40.65589145 -11.32701683 36.76759338 C-11.32601386 32.19088314 -11.31992098 27.614207 -11.30985069 23.03750801 C-11.30692456 21.35525789 -11.30570055 19.67300384 -11.30627823 17.99075127 C-11.30676738 15.69948615 -11.30112841 13.40831718 -11.29386902 11.11706543 C-11.29219317 9.83321709 -11.29051733 8.54936874 -11.2887907 7.22661591 C-11.16015625 4.1328125 -11.16015625 4.1328125 -10.16015625 1.1328125 C-6.60359136 -0.05270913 -3.75332323 0.00324863 0 0 Z " fill="#FEFEFE" transform="translate(442.16015625,79.8671875)"/>
<path d="M0 0 C1.39251228 -0.00438835 1.39251228 -0.00438835 2.81315613 -0.00886536 C3.80592056 0.00864273 4.798685 0.02615082 5.8215332 0.04418945 C6.85615189 0.04747757 7.89077057 0.05076569 8.95674133 0.05415344 C12.2623583 0.06988403 15.56696008 0.11389367 18.87231445 0.1574707 C21.07738424 0.1689664 23.28246365 0.17875028 25.48754883 0.18676758 C27.61972052 0.20020507 29.75188346 0.21513169 31.8840332 0.23168945 C32.86667648 0.23907639 33.84931976 0.24646332 34.86174011 0.2540741 C39.50383007 0.31718412 44.13489633 0.46656577 48.76611328 0.79736328 C49.56906326 0.85322098 50.37201324 0.90907867 51.19929504 0.96662903 C53.18481445 1.4699707 53.18481445 1.4699707 55.18481445 4.4699707 C55.18481445 5.4599707 55.18481445 6.4499707 55.18481445 7.4699707 C56.83481445 7.7999707 58.48481445 8.1299707 60.18481445 8.4699707 C60.24668945 9.2537207 60.30856445 10.0374707 60.37231445 10.8449707 C60.77450195 12.1443457 60.77450195 12.1443457 61.18481445 13.4699707 C63.59433468 14.71711473 63.59433468 14.71711473 66.18481445 15.4699707 C69.56400863 18.84916488 68.48813991 23.55315193 68.50708008 28.11450195 C68.50490479 28.80882324 68.50272949 29.50314453 68.50048828 30.21850586 C68.4973365 32.33020006 68.52075307 34.44048192 68.54614258 36.55200195 C68.54841648 37.89705227 68.54911864 39.24210635 68.5480957 40.5871582 C68.55107666 41.81031738 68.55405762 43.03347656 68.55712891 44.29370117 C68.15738527 47.70397312 67.71797074 49.16775234 65.18481445 51.4699707 C63.86481445 51.4699707 62.54481445 51.4699707 61.18481445 51.4699707 C60.16877594 56.16914881 60.16877594 59.7707926 61.18481445 64.4699707 C62.36043945 64.6555957 62.36043945 64.6555957 63.55981445 64.8449707 C66.18481445 65.4699707 66.18481445 65.4699707 68.18481445 67.4699707 C68.38457402 70.07626775 68.4646498 72.57394555 68.45043945 75.1809082 C68.45235291 75.94545319 68.45426636 76.70999817 68.45623779 77.49771118 C68.45759985 79.11672291 68.45390195 80.73574554 68.44555664 82.35473633 C68.43488639 84.82829503 68.44543571 87.30112261 68.45825195 89.7746582 C68.45692979 91.34757647 68.45436621 92.92049428 68.45043945 94.4934082 C68.45448792 95.23207123 68.45853638 95.97073425 68.46270752 96.73178101 C68.39851163 103.7983535 68.39851163 103.7983535 66.18481445 106.4699707 C60.78134277 108.22628745 54.74550662 107.65412953 49.12231445 107.6574707 C48.03370117 107.6697168 46.94508789 107.68196289 45.82348633 107.69458008 C44.25244141 107.69748047 44.25244141 107.69748047 42.6496582 107.70043945 C41.22061157 107.70660278 41.22061157 107.70660278 39.76269531 107.71289062 C37.09957663 107.46193854 35.46649648 106.8259475 33.18481445 105.4699707 C32.55641484 93.79443964 32.0079015 82.16588259 32.18481445 70.4699707 C29.21481445 69.9749707 29.21481445 69.9749707 26.18481445 69.4699707 C26.18481445 81.3499707 26.18481445 93.2299707 26.18481445 105.4699707 C18.29617437 107.72386787 18.29617437 107.72386787 13.3918457 107.7355957 C12.34963867 107.73817383 11.30743164 107.74075195 10.23364258 107.7434082 C8.63166016 107.73180664 8.63166016 107.73180664 6.99731445 107.7199707 C5.37792969 107.73157227 5.37792969 107.73157227 3.72583008 107.7434082 C2.68749023 107.74083008 1.64915039 107.73825195 0.5793457 107.7355957 C-0.36062256 107.73333984 -1.30059082 107.73108398 -2.26904297 107.72875977 C-4.96188268 107.45506046 -6.57985086 106.9869744 -8.81518555 105.4699707 C-9.71477599 102.77119937 -9.9474735 101.18772943 -9.96908569 98.41566467 C-9.98198639 97.181269 -9.98198639 97.181269 -9.99514771 95.92193604 C-9.99940765 95.02263367 -10.0036676 94.1233313 -10.00805664 93.19677734 C-10.02032288 91.77198311 -10.02032288 91.77198311 -10.03283691 90.31840515 C-10.05766918 87.17231885 -10.0741984 84.02627748 -10.08862305 80.88012695 C-10.09394672 79.80667967 -10.0992704 78.73323238 -10.1047554 77.62725639 C-10.1314732 71.94926543 -10.15085547 66.27129639 -10.1652832 60.59326172 C-10.18195866 54.72055114 -10.22676488 48.84839873 -10.27765465 42.9758997 C-10.31125081 38.46609324 -10.32285205 33.95642079 -10.32851028 29.44650078 C-10.3352402 27.28108881 -10.3505071 25.11568618 -10.37440109 22.95039558 C-10.40590128 19.92398097 -10.40611245 16.89909302 -10.39868164 13.87255859 C-10.41508698 12.97528046 -10.43149231 12.07800232 -10.44839478 11.15353394 C-10.38766532 5.12510636 -10.38766532 5.12510636 -7.57966614 1.91168213 C-4.73532771 0.42832384 -3.17205276 -0.02293183 0 0 Z M-2.81518555 7.4699707 C-2.81518555 38.4899707 -2.81518555 69.5099707 -2.81518555 101.4699707 C4.44481445 101.4699707 11.70481445 101.4699707 19.18481445 101.4699707 C19.22219727 98.62887695 19.25958008 95.7877832 19.2980957 92.8605957 C19.344316 90.10693695 19.39554781 87.35341385 19.44726562 84.59985352 C19.48050559 82.68717706 19.50854045 80.77440273 19.53125 78.86157227 C19.56481314 76.11082276 19.61712934 73.36096938 19.6730957 70.6105957 C19.67948563 69.75628967 19.68587555 68.90198364 19.69245911 68.02178955 C19.87368736 60.69244131 19.87368736 60.69244131 23.18481445 57.4699707 C21.69981445 56.9749707 21.69981445 56.9749707 20.18481445 56.4699707 C20.13416608 49.97382938 20.09910276 43.47773885 20.07495117 36.98144531 C20.0648844 34.77081398 20.05122997 32.56019598 20.03393555 30.34960938 C20.00971707 27.1748526 19.99833818 24.00027164 19.98950195 20.82543945 C19.97917938 19.83472946 19.96885681 18.84401947 19.95822144 17.82328796 C19.95807037 16.90255997 19.95791931 15.98183197 19.95776367 15.03320312 C19.95332245 14.2226799 19.94888123 13.41215668 19.94430542 12.57707214 C20.18481445 10.4699707 20.18481445 10.4699707 22.18481445 7.4699707 C13.93481445 7.4699707 5.68481445 7.4699707 -2.81518555 7.4699707 Z M30.18481445 7.4699707 C30.84481445 9.4499707 31.50481445 11.4299707 32.18481445 13.4699707 C34.67515832 14.76657504 34.67515832 14.76657504 37.18481445 15.4699707 C39.38886462 19.87807104 38.53546481 25.75054839 38.58984375 30.64575195 C38.61144156 32.10855695 38.64556713 33.57123209 38.69238281 35.03344727 C38.75937366 37.14568546 38.78683078 39.25525793 38.8059082 41.3684082 C38.83096436 42.63346191 38.85602051 43.89851563 38.88183594 45.2019043 C38.18481445 48.4699707 38.18481445 48.4699707 35.14599609 50.66381836 C33.68021118 51.55786377 33.68021118 51.55786377 32.18481445 52.4699707 C32.18481445 53.7899707 32.18481445 55.1099707 32.18481445 56.4699707 C30.69981445 56.9649707 30.69981445 56.9649707 29.18481445 57.4699707 C30.7865535 62.66086475 30.7865535 62.66086475 34.80981445 65.8449707 C35.59356445 66.0512207 36.37731445 66.2574707 37.18481445 66.4699707 C39.16310518 68.44826143 38.43985377 72.29324097 38.5012207 75.00512695 C38.5220018 75.75837753 38.5427829 76.51162811 38.56419373 77.28770447 C38.6297687 79.7025306 38.68861066 82.11746869 38.74731445 84.5324707 C38.79049215 86.16594599 38.83410619 87.79940981 38.87817383 89.43286133 C38.98545807 93.44511534 39.08670266 97.45748234 39.18481445 101.4699707 C42.83063132 101.49884582 46.47641909 101.51672655 50.12231445 101.5324707 C51.16323242 101.54084961 52.20415039 101.54922852 53.27661133 101.55786133 C54.76064453 101.56269531 54.76064453 101.56269531 56.2746582 101.56762695 C57.64932251 101.57548218 57.64932251 101.57548218 59.05175781 101.58349609 C61.16844468 101.70918282 61.16844468 101.70918282 62.18481445 100.4699707 C62.2725705 98.32438244 62.29176664 96.17592649 62.2824707 94.02856445 C62.27924805 92.72338867 62.27602539 91.41821289 62.27270508 90.07348633 C62.26434846 88.68481381 62.2558835 87.29614193 62.24731445 85.9074707 C62.24230111 84.51489415 62.23773792 83.12231589 62.23364258 81.72973633 C62.22180879 78.309772 62.20532325 74.88989226 62.18481445 71.4699707 C60.20481445 70.8099707 58.22481445 70.1499707 56.18481445 69.4699707 C55.85481445 67.4899707 55.52481445 65.5099707 55.18481445 63.4699707 C50.23481445 63.4699707 45.28481445 63.4699707 40.18481445 63.4699707 C40.18481445 59.8399707 40.18481445 56.2099707 40.18481445 52.4699707 C45.13481445 52.1399707 50.08481445 51.8099707 55.18481445 51.4699707 C55.84481445 49.8199707 56.50481445 48.1699707 57.18481445 46.4699707 C58.83481445 45.8099707 60.48481445 45.1499707 62.18481445 44.4699707 C62.18481445 36.5499707 62.18481445 28.6299707 62.18481445 20.4699707 C60.20481445 19.8099707 58.22481445 19.1499707 56.18481445 18.4699707 C55.85481445 16.8199707 55.52481445 15.1699707 55.18481445 13.4699707 C54.40106445 13.4080957 53.61731445 13.3462207 52.80981445 13.2824707 C51.94356445 13.0143457 51.07731445 12.7462207 50.18481445 12.4699707 C49.52481445 10.8199707 48.86481445 9.1699707 48.18481445 7.4699707 C42.24481445 7.4699707 36.30481445 7.4699707 30.18481445 7.4699707 Z M26.18481445 18.4699707 C26.18481445 27.7099707 26.18481445 36.9499707 26.18481445 46.4699707 C28.16481445 46.1399707 30.14481445 45.8099707 32.18481445 45.4699707 C33.3792724 40.07279037 33.10525628 35.05872639 32.74731445 29.5949707 C32.69510742 28.71583008 32.64290039 27.83668945 32.58911133 26.9309082 C32.46033884 24.77689572 32.32339982 22.62337411 32.18481445 20.4699707 C30.20481445 19.8099707 28.22481445 19.1499707 26.18481445 18.4699707 Z " fill="#FEFEFE" transform="translate(748.815185546875,270.530029296875)"/>
<path d="M0 0 C2.48340903 -0.26727014 4.71472068 -0.34866334 7.1953125 -0.29296875 C8.25647781 -0.28660149 8.25647781 -0.28660149 9.33908081 -0.28010559 C11.60143905 -0.26329547 13.86291048 -0.22564128 16.125 -0.1875 C17.65753923 -0.17245607 19.1900924 -0.15876716 20.72265625 -0.14648438 C24.48211318 -0.11338462 28.24090618 -0.06158825 32 0 C33.58230808 3.16461615 33.24157813 6.59079367 33.31640625 10.0703125 C33.33718735 10.86654022 33.35796844 11.66276794 33.37937927 12.48312378 C33.44484149 15.03032685 33.50374415 17.57763425 33.5625 20.125 C33.6056884 21.85027127 33.64930279 23.57553193 33.69335938 25.30078125 C33.80051945 29.53374685 33.90179623 33.76681753 34 38 C36.475 37.505 36.475 37.505 39 37 C39.01981934 35.95021973 39.03963867 34.90043945 39.06005859 33.81884766 C39.13602198 29.93106739 39.22475298 26.04366597 39.31738281 22.15625 C39.35571104 20.47240671 39.39055712 18.78848045 39.421875 17.10449219 C39.46744287 14.68654694 39.52544923 12.26917472 39.5859375 9.8515625 C39.60326431 8.71867294 39.60326431 8.71867294 39.62094116 7.56289673 C39.77225659 2.22774341 39.77225659 2.22774341 42 0 C45.04101562 -0.25878906 45.04101562 -0.25878906 48.90625 -0.265625 C49.92700623 -0.26849518 49.92700623 -0.26849518 50.96838379 -0.27142334 C52.40747446 -0.27278463 53.84657744 -0.26909205 55.28564453 -0.26074219 C57.49149087 -0.25004128 59.69652281 -0.26063872 61.90234375 -0.2734375 C63.29948097 -0.27211589 64.69661768 -0.26955348 66.09375 -0.265625 C67.36927734 -0.26336914 68.64480469 -0.26111328 69.95898438 -0.25878906 C73 0 73 0 75 2 C75.24723816 3.89746094 75.24723816 3.89746094 75.24291992 6.234375 C75.24753487 7.54583496 75.24753487 7.54583496 75.25224304 8.88378906 C75.24146477 10.30256348 75.24146477 10.30256348 75.23046875 11.75 C75.23001053 12.71905273 75.22955231 13.68810547 75.2290802 14.68652344 C75.22605596 16.73764265 75.21816454 18.78875952 75.20581055 20.83984375 C75.18757497 23.98706155 75.18530069 27.13398494 75.18554688 30.28125 C75.18063098 32.27083589 75.17480235 34.26041977 75.16796875 36.25 C75.16685593 37.19584961 75.1657431 38.14169922 75.16459656 39.11621094 C75.15821671 39.99051758 75.15183685 40.86482422 75.14526367 41.765625 C75.14145187 42.53680664 75.13764008 43.30798828 75.13371277 44.10253906 C75 46 75 46 74 48 C71.67843403 48.40729228 69.3431213 48.74438677 67 49 C67.495 51.97 67.495 51.97 68 55 C69.4540625 55.185625 69.4540625 55.185625 70.9375 55.375 C71.948125 55.58125 72.95875 55.7875 74 56 C75.17022189 58.34044379 75.12676545 59.71905714 75.12939453 62.32617188 C75.13254669 63.22049927 75.13569885 64.11482666 75.13894653 65.03625488 C75.13591019 66.48783997 75.13591019 66.48783997 75.1328125 67.96875 C75.13376923 68.95999878 75.13472595 69.95124756 75.13571167 70.97253418 C75.13639293 73.07072005 75.13454243 75.16890801 75.13037109 77.26708984 C75.12502209 80.4867016 75.13031794 83.70617385 75.13671875 86.92578125 C75.13605796 88.96093781 75.13477678 90.99609428 75.1328125 93.03125 C75.13483673 93.99897339 75.13686096 94.96669678 75.13894653 95.96374512 C75.13421829 97.30523621 75.13421829 97.30523621 75.12939453 98.67382812 C75.12859894 99.46277466 75.12780334 100.25172119 75.12698364 101.0645752 C75 103 75 103 74 105 C69.80125838 105.19279158 65.60222204 105.3714261 61.40234375 105.53710938 C59.97444624 105.59541735 58.54669964 105.65755423 57.11914062 105.72363281 C55.06408166 105.81808538 53.00886899 105.89863877 50.953125 105.9765625 C49.71723633 106.02893066 48.48134766 106.08129883 47.20800781 106.13525391 C44 106 44 106 40 104 C40 90.14 40 76.28 40 62 C38.35 61.67 36.7 61.34 35 61 C34.67 60.67 34.34 60.34 34 60 C33.67 74.52 33.34 89.04 33 104 C28.28459537 105.57180154 25.96557508 106.25454084 21.3046875 106.265625 C19.73654297 106.26949219 19.73654297 106.26949219 18.13671875 106.2734375 C17.06035156 106.26570313 15.98398437 106.25796875 14.875 106.25 C13.79089844 106.25773437 12.70679688 106.26546875 11.58984375 106.2734375 C10.02556641 106.26957031 10.02556641 106.26957031 8.4296875 106.265625 C7.48335449 106.26336914 6.53702148 106.26111328 5.56201172 106.25878906 C2.86068496 105.98592777 1.2411172 105.5228674 -1 104 C-1.90378786 101.28863641 -2.12719724 99.72279993 -2.13371277 96.93896484 C-2.13797775 96.11458923 -2.14224274 95.29021362 -2.14663696 94.44085693 C-2.14618378 93.53998352 -2.14573059 92.63911011 -2.14526367 91.7109375 C-2.14862228 90.75946838 -2.1519809 89.80799927 -2.15544128 88.82769775 C-2.16495472 85.67678529 -2.16689446 82.52592593 -2.16796875 79.375 C-2.17118057 77.18929014 -2.17454459 75.0035805 -2.17805481 72.81787109 C-2.18404672 68.23469545 -2.1858946 63.65153866 -2.18530273 59.06835938 C-2.185201 53.18678912 -2.1988648 47.30533929 -2.21607494 41.42379761 C-2.22717506 36.90974366 -2.22922257 32.39571903 -2.22869301 27.88165283 C-2.22987568 25.7126626 -2.23431347 23.54367167 -2.24202538 21.37469482 C-2.25178705 18.34606397 -2.24896257 15.31769731 -2.24291992 12.2890625 C-2.24853943 11.38818909 -2.25415894 10.48731567 -2.25994873 9.55914307 C-2.253657 8.32257965 -2.253657 8.32257965 -2.24723816 7.06103516 C-2.24778293 6.34501129 -2.24832769 5.62898743 -2.24888897 4.89126587 C-2 3 -2 3 0 0 Z M4 7 C3.9768781 18.97803559 3.9590857 30.95606591 3.94818783 42.93411922 C3.94295866 48.49539411 3.93586042 54.05665379 3.92456055 59.61791992 C3.91373285 64.98007419 3.90772342 70.34221378 3.90512276 75.70437813 C3.90326829 77.75500278 3.89964728 79.8056266 3.89426994 81.85624504 C3.88706107 84.71790203 3.88600899 87.57949757 3.88647461 90.44116211 C3.88287933 91.29783478 3.87928406 92.15450745 3.87557983 93.03713989 C3.51206834 96.82509864 3.51206834 96.82509864 5 100 C6.63472882 100.08700342 8.27314055 100.10701063 9.91015625 100.09765625 C10.89951172 100.09443359 11.88886719 100.09121094 12.90820312 100.08789062 C14.46958008 100.07532227 14.46958008 100.07532227 16.0625 100.0625 C17.10728516 100.05798828 18.15207031 100.05347656 19.22851562 100.04882812 C21.8190666 100.03699913 24.40950559 100.02051689 27 100 C27.00808685 99.40753479 27.01617371 98.81506958 27.02450562 98.20465088 C27.1105396 92.0401863 27.21004284 85.8760437 27.31738281 79.71191406 C27.35567417 77.4111878 27.39052674 75.11040165 27.421875 72.80957031 C27.4675217 69.50303738 27.52551747 66.19691688 27.5859375 62.890625 C27.59748871 61.86132874 27.60903992 60.83203247 27.62094116 59.77154541 C27.64081085 58.81085144 27.66068054 57.85015747 27.68115234 56.86035156 C27.69447601 56.01651917 27.70779968 55.17268677 27.7215271 54.30328369 C28.0223118 51.81545639 28.75378638 50.15684401 30 48 C29.34 48 28.68 48 28 48 C27.505 27.21 27.505 27.21 27 6 C23.30637607 5.07659402 20.40398165 4.83452204 16.625 4.8125 C15.52414062 4.79832031 14.42328125 4.78414063 13.2890625 4.76953125 C9.87649381 5.00865423 7.21055644 5.86763792 4 7 Z M46 6 C46.00112793 7.00901367 46.00225586 8.01802734 46.00341797 9.05761719 C45.99974181 12.80786115 45.95690864 16.55682019 45.90234375 20.30664062 C45.88419567 21.92830115 45.87661314 23.55011622 45.87988281 25.171875 C45.88274378 27.50642143 45.8474002 29.8377718 45.8046875 32.171875 C45.8183284 33.25647003 45.8183284 33.25647003 45.83224487 34.36297607 C45.77294922 36.42480469 45.77294922 36.42480469 45 40 C42.04345703 42.34082031 42.04345703 42.34082031 39 44 C37.03253894 47.11514668 36.916354 48.47721248 37.5 52.125 C39.03375935 55.74952941 39.03375935 55.74952941 45 58 C45.33 71.86 45.66 85.72 46 100 C51.4140625 100.0309375 51.4140625 100.0309375 56.9375 100.0625 C58.07695068 100.071604 59.21640137 100.08070801 60.39038086 100.09008789 C61.28120361 100.09258545 62.17202637 100.09508301 63.08984375 100.09765625 C64.46450806 100.10551147 64.46450806 100.10551147 65.86694336 100.11352539 C67.98363023 100.23921211 67.98363023 100.23921211 69 99 C69.08858646 96.26105915 69.11523479 93.5474673 69.09765625 90.80859375 C69.09553383 89.57883568 69.09553383 89.57883568 69.09336853 88.32423401 C69.08775289 85.69528618 69.07519779 83.06642227 69.0625 80.4375 C69.05748701 78.65950643 69.05292376 76.88151154 69.04882812 75.10351562 C69.03777839 70.73564455 69.02050331 66.36783652 69 62 C68.20207031 61.72414063 67.40414062 61.44828125 66.58203125 61.1640625 C64 60 64 60 62.6875 57.375 C62.460625 56.59125 62.23375 55.8075 62 55 C60.50146484 54.90912109 60.50146484 54.90912109 58.97265625 54.81640625 C57.68230469 54.73261719 56.39195312 54.64882813 55.0625 54.5625 C53.77472656 54.48128906 52.48695313 54.40007812 51.16015625 54.31640625 C48 54 48 54 47 53 C46.85884839 50.32941149 46.95752893 47.67567762 47 45 C49.29291824 43.85354088 50.76450359 43.81796574 53.31640625 43.71875 C54.58581055 43.66267578 54.58581055 43.66267578 55.88085938 43.60546875 C57.67252002 43.53500285 59.46418672 43.46469102 61.25585938 43.39453125 C62.52333008 43.33845703 62.52333008 43.33845703 63.81640625 43.28125 C64.98345093 43.23581055 64.98345093 43.23581055 66.17407227 43.18945312 C68.01810083 43.19201764 68.01810083 43.19201764 69 42 C69.11332093 39.42980515 69.16417485 36.88748523 69.16796875 34.31640625 C69.17129715 33.54570297 69.17462555 32.77499969 69.17805481 31.98094177 C69.1831271 30.34757079 69.18546304 28.7141894 69.18530273 27.08081055 C69.1874878 24.57648701 69.20563595 22.07260479 69.22460938 19.56835938 C69.22754347 17.98437651 69.22952816 16.40039155 69.23046875 14.81640625 C69.23765427 14.0642836 69.24483978 13.31216095 69.25224304 12.5372467 C69.38144465 8.3089555 69.38144465 8.3089555 67 5 C65.11342252 4.70722718 65.11342252 4.70722718 62.97265625 4.76953125 C62.18052734 4.77146484 61.38839844 4.77339844 60.57226562 4.77539062 C59.32993164 4.79375977 59.32993164 4.79375977 58.0625 4.8125 C57.23814453 4.81314453 56.41378906 4.81378906 55.56445312 4.81445312 C52.05511556 4.84011035 49.36044699 4.879851 46 6 Z " fill="#FEFEFE" transform="translate(904,272)"/>
<path d="M0 0 C1.31153549 -0.00953201 2.62307098 -0.01906403 3.97434998 -0.02888489 C5.41266913 -0.02862347 6.85098831 -0.02768646 8.28930664 -0.02612305 C9.75899884 -0.03000856 11.22868991 -0.03434293 12.69837952 -0.03910828 C15.78105303 -0.04657671 18.86361204 -0.04627486 21.94628906 -0.04101562 C25.89877438 -0.03522153 29.85079101 -0.05214703 33.80319881 -0.0753603 C36.83922572 -0.09008547 39.87513946 -0.090971 42.91119576 -0.08785057 C44.36846406 -0.08836445 45.82573858 -0.09361466 47.28297234 -0.10366249 C49.32012236 -0.11598395 51.35736683 -0.10730803 53.39453125 -0.09765625 C54.55431992 -0.09828568 55.71410858 -0.0989151 56.90904236 -0.0995636 C59.76196289 0.2746582 59.76196289 0.2746582 61.63467407 1.61323547 C64.26087578 5.48378855 63.23681564 11.21599121 63.20800781 15.72631836 C63.19948986 17.76819391 63.22827123 19.80727735 63.26000977 21.84887695 C63.25904297 23.77666992 63.25904297 23.77666992 63.25805664 25.7434082 C63.25990967 26.92354492 63.2617627 28.10368164 63.26367188 29.31958008 C62.76196289 32.2746582 62.76196289 32.2746582 61.03588867 34.16235352 C58.43471388 35.43473405 56.7687784 35.63489907 53.88305664 35.6027832 C52.50150391 35.59504883 52.50150391 35.59504883 51.09204102 35.5871582 C50.13749023 35.5665332 49.18293945 35.5459082 48.19946289 35.5246582 C47.24104492 35.51950195 46.28262695 35.5143457 45.29516602 35.5090332 C38.22734768 35.42978647 38.22734768 35.42978647 34.76196289 34.2746582 C34.43196289 32.6246582 34.10196289 30.9746582 33.76196289 29.2746582 C31.78196289 28.6146582 29.80196289 27.9546582 27.76196289 27.2746582 C27.76196289 32.8846582 27.76196289 38.4946582 27.76196289 44.2746582 C30.2350293 44.25725586 30.2350293 44.25725586 32.75805664 44.23950195 C34.90519093 44.23012582 37.05232644 44.22102543 39.19946289 44.2121582 C40.28807617 44.2037793 41.37668945 44.19540039 42.49829102 44.18676758 C43.53276367 44.18354492 44.56723633 44.18032227 45.63305664 44.17700195 C46.59139404 44.17176514 47.54973145 44.16652832 48.53710938 44.16113281 C50.76196289 44.2746582 50.76196289 44.2746582 51.76196289 45.2746582 C51.88849487 47.7670439 51.94716114 50.21936261 51.94946289 52.7121582 C51.96170898 53.40631836 51.97395508 54.10047852 51.98657227 54.81567383 C51.99186131 56.63686721 51.88365496 58.4575274 51.76196289 60.2746582 C49.76196289 62.2746582 49.76196289 62.2746582 47.51538086 62.50170898 C46.6041748 62.49123535 45.69296875 62.48076172 44.75415039 62.4699707 C43.76801758 62.46352539 42.78188477 62.45708008 41.76586914 62.45043945 C40.73333008 62.43368164 39.70079102 62.41692383 38.63696289 62.3996582 C37.59668945 62.39063477 36.55641602 62.38161133 35.48461914 62.37231445 C32.91030292 62.34869687 30.33610452 62.31282505 27.76196289 62.2746582 C28.25696289 70.1946582 28.25696289 70.1946582 28.76196289 78.2746582 C31.23696289 77.7796582 31.23696289 77.7796582 33.76196289 77.2746582 C33.90633789 76.4702832 34.05071289 75.6659082 34.19946289 74.8371582 C34.76196289 72.2746582 34.76196289 72.2746582 35.76196289 71.2746582 C39.71310834 70.99407331 43.67704012 71.04284384 47.63696289 71.0246582 C49.30952148 70.9937207 49.30952148 70.9937207 51.01586914 70.9621582 C52.08450195 70.95700195 53.15313477 70.9518457 54.25415039 70.9465332 C55.23754395 70.9371875 56.2209375 70.9278418 57.23413086 70.91821289 C59.76196289 71.2746582 59.76196289 71.2746582 61.58569336 72.38476562 C63.34395036 75.20972774 63.11611212 77.53710851 63.09008789 80.84106445 C63.08493164 82.13077148 63.07977539 83.42047852 63.07446289 84.74926758 C63.06415039 85.41982178 63.05383789 86.09037598 63.04321289 86.78125 C63.01202193 88.83327405 63.00223724 90.88452981 62.99633789 92.93676758 C62.91606018 102.96646362 62.91606018 102.96646362 61.76196289 105.2746582 C57.70662903 106.20677951 53.78570385 106.40472154 49.63647461 106.41992188 C47.85465286 106.42949165 47.85465286 106.42949165 46.03683472 106.43925476 C44.13346848 106.440924 44.13346848 106.440924 42.19165039 106.44262695 C40.87786407 106.44595535 39.56407776 106.44928375 38.21047974 106.45271301 C35.43840715 106.45868012 32.66636565 106.46055522 29.89428711 106.45996094 C26.34567648 106.45985901 22.79726453 106.47355366 19.2487011 106.49073315 C15.85468105 106.50452637 12.46069812 106.50394145 9.06665039 106.50512695 C7.7936911 106.51231247 6.52073181 106.51949799 5.209198 106.52690125 C4.02762115 106.52382462 2.84604431 106.52074799 1.62866211 106.51757812 C0.07029129 106.51971565 0.07029129 106.51971565 -1.51956177 106.52189636 C-4.29554247 106.26942824 -5.82006246 105.57547089 -8.23803711 104.2746582 C-8.28429906 91.01006611 -8.31987499 77.74549309 -8.34166145 64.48083687 C-8.35211581 58.32207523 -8.36630508 52.16336863 -8.38891602 46.00463867 C-8.41058556 40.06541271 -8.42259327 34.12623982 -8.4277916 28.18697739 C-8.43149796 25.91667724 -8.43873516 23.64638011 -8.44949722 21.37610245 C-8.46393388 18.20566696 -8.46601834 15.03545309 -8.46508789 11.86499023 C-8.47227844 10.91840546 -8.47946899 9.97182068 -8.48687744 8.99655151 C-8.48412811 8.13555847 -8.48137878 7.27456543 -8.47854614 6.38748169 C-8.48038973 5.6371422 -8.48223331 4.88680271 -8.48413277 4.11372566 C-7.8381014 -0.71405262 -3.9063704 0.01552915 0 0 Z M-1.23803711 6.2746582 C-1.23803711 37.2946582 -1.23803711 68.3146582 -1.23803711 100.2746582 C7.01196289 100.2746582 15.26196289 100.2746582 23.76196289 100.2746582 C23.10196289 99.2846582 22.44196289 98.2946582 21.76196289 97.2746582 C21.52145386 95.39533997 21.52145386 95.39533997 21.53491211 93.26220703 C21.53506317 92.46160355 21.53521423 91.66100006 21.53536987 90.83613586 C21.54569244 89.97666855 21.55601501 89.11720123 21.56665039 88.23168945 C21.56948029 87.3480925 21.57231018 86.46449554 21.57522583 85.55412292 C21.58642192 82.73166366 21.61152538 79.90952158 21.63696289 77.0871582 C21.64699343 75.17375133 21.65611915 73.26033948 21.66430664 71.34692383 C21.68465795 66.65594807 21.72380745 61.96565824 21.76196289 57.2746582 C29.68196289 56.9446582 37.60196289 56.6146582 45.76196289 56.2746582 C45.76196289 54.2946582 45.76196289 52.3146582 45.76196289 50.2746582 C42.98708728 49.34969967 41.48123874 49.17627127 38.63696289 49.24731445 C37.84805664 49.25956055 37.05915039 49.27180664 36.24633789 49.28442383 C34.59000041 49.31958194 32.93374122 49.35864509 31.27758789 49.40161133 C30.48868164 49.41256836 29.69977539 49.42352539 28.88696289 49.43481445 C28.16766602 49.45165283 27.44836914 49.46849121 26.70727539 49.48583984 C24.76196289 49.2746582 24.76196289 49.2746582 21.76196289 47.2746582 C21.48267509 44.40086324 21.39012125 41.7455067 21.43383789 38.87231445 C21.43571106 38.03880966 21.43758423 37.20530487 21.43951416 36.34654236 C21.44624256 34.58206184 21.46017266 32.81759644 21.48071289 31.05322266 C21.51179785 28.35150291 21.52167622 25.65036697 21.52758789 22.94848633 C21.53676078 21.23558859 21.54713747 19.52269679 21.55883789 17.80981445 C21.56521271 16.59564598 21.56521271 16.59564598 21.57171631 15.35694885 C21.61342603 12.08310773 21.71973115 9.40135344 22.76196289 6.2746582 C17.95379906 5.32209744 13.38808172 5.12286634 8.51196289 5.1496582 C7.79266602 5.14579102 7.07336914 5.14192383 6.33227539 5.13793945 C2.41882088 5.07331231 2.41882088 5.07331231 -1.23803711 6.2746582 Z M30.76196289 6.2746582 C31.75196289 7.7596582 31.75196289 7.7596582 32.76196289 9.2746582 C33.17602539 12.41137695 33.17602539 12.41137695 33.38696289 15.9621582 C33.46172852 17.14165039 33.53649414 18.32114258 33.61352539 19.53637695 C33.66250977 20.44000977 33.71149414 21.34364258 33.76196289 22.2746582 C35.41196289 22.6046582 37.06196289 22.9346582 38.76196289 23.2746582 C39.42196289 25.2546582 40.08196289 27.2346582 40.76196289 29.2746582 C45.71196289 29.2746582 50.66196289 29.2746582 55.76196289 29.2746582 C55.76196289 21.6846582 55.76196289 14.0946582 55.76196289 6.2746582 C47.58300029 4.22991755 39.05806236 5.26688907 30.76196289 6.2746582 Z M26.76196289 13.2746582 C26.76196289 17.2346582 26.76196289 21.1946582 26.76196289 25.2746582 C27.09196289 25.2746582 27.42196289 25.2746582 27.76196289 25.2746582 C27.76196289 21.3146582 27.76196289 17.3546582 27.76196289 13.2746582 C27.43196289 13.2746582 27.10196289 13.2746582 26.76196289 13.2746582 Z M40.76196289 77.2746582 C38.96423723 79.61805991 38.96423723 79.61805991 37.76196289 82.2746582 C37.05555664 82.56083008 36.34915039 82.84700195 35.62133789 83.1418457 C35.00774414 83.51567383 34.39415039 83.88950195 33.76196289 84.2746582 C33.05407854 87.61441193 33.05407854 87.61441193 33.01196289 91.3996582 C32.95524414 92.68098633 32.89852539 93.96231445 32.84008789 95.2824707 C32.81430664 96.26989258 32.78852539 97.25731445 32.76196289 98.2746582 C32.10196289 98.2746582 31.44196289 98.2746582 30.76196289 98.2746582 C30.76196289 98.9346582 30.76196289 99.5946582 30.76196289 100.2746582 C39.01196289 100.2746582 47.26196289 100.2746582 55.76196289 100.2746582 C55.76196289 92.6846582 55.76196289 85.0946582 55.76196289 77.2746582 C53.34883789 77.1715332 50.93571289 77.0684082 48.44946289 76.9621582 C47.69366943 76.91663818 46.93787598 76.87111816 46.15917969 76.82421875 C44.03617669 76.73276506 44.03617669 76.73276506 40.76196289 77.2746582 Z M26.76196289 89.2746582 C27.76196289 93.2746582 27.76196289 93.2746582 27.76196289 93.2746582 Z " fill="#FEFEFE" transform="translate(833.238037109375,271.725341796875)"/>
<path d="M0 0 C3.3411618 5.18089804 2.36880738 11.56127806 2.375 17.5 C2.39949219 18.73621094 2.42398438 19.97242188 2.44921875 21.24609375 C2.45308594 22.43332031 2.45695313 23.62054688 2.4609375 24.84375 C2.46915527 25.92849609 2.47737305 27.01324219 2.48583984 28.13085938 C1.88579907 31.67441678 0.82039016 32.83844786 -2 35 C-4.875 35.53125 -4.875 35.53125 -8 35.5 C-9.03125 35.5103125 -10.0625 35.520625 -11.125 35.53125 C-14.63913621 34.88189874 -15.78797608 33.74454819 -18 31 C-18.495 30.01 -18.495 30.01 -19 29 C-21.01669827 27.86649466 -21.01669827 27.86649466 -23 27 C-23.00808685 27.93294388 -23.01617371 28.86588776 -23.02450562 29.82710266 C-23.10193237 38.61182822 -23.18966278 47.39639824 -23.28752708 56.1809206 C-23.33750982 60.69732392 -23.38383964 65.21370362 -23.421875 69.73022461 C-23.4587029 74.08751049 -23.50505594 78.44459972 -23.55806351 82.80171776 C-23.57662076 84.46548202 -23.59172379 86.12928845 -23.60334396 87.79311562 C-23.62018381 90.12050208 -23.64921273 92.44743688 -23.68115234 94.7746582 C-23.68331253 95.46517776 -23.68547272 96.15569733 -23.68769836 96.86714172 C-23.75095996 100.46663258 -23.94208372 101.91312558 -26 105 C-28.47165848 105.27980316 -30.68978741 105.37255486 -33.16015625 105.328125 C-33.86522812 105.32625183 -34.57029999 105.32437866 -35.29673767 105.32244873 C-36.7871473 105.31572481 -38.27753919 105.30180341 -39.76782227 105.28125 C-42.05696893 105.25007532 -44.34542768 105.24027853 -46.63476562 105.234375 C-48.08073762 105.22520598 -49.52670257 105.21483053 -50.97265625 105.203125 C-51.66118179 105.19887512 -52.34970734 105.19462524 -53.05909729 105.19024658 C-57.88283631 105.11716369 -57.88283631 105.11716369 -59 104 C-59.12492389 101.56700213 -59.18601507 99.16095077 -59.20532227 96.72631836 C-59.21522186 95.96539383 -59.22512146 95.2044693 -59.23532104 94.42048645 C-59.26702624 91.8936377 -59.2917289 89.36677012 -59.31640625 86.83984375 C-59.33696801 85.09248859 -59.35796426 83.34513849 -59.37937927 81.59779358 C-59.43468041 76.98973682 -59.48405408 72.38163459 -59.53222656 67.77349854 C-59.58238303 63.07486911 -59.63809958 58.37630606 -59.69335938 53.67773438 C-59.80103924 44.45187956 -59.90246223 35.22596722 -60 26 C-64.02189453 28.24386285 -65.7697979 29.9643962 -68 34 C-70.573329 35.2866645 -72.50223038 35.16824551 -75.375 35.1875 C-76.33148437 35.20167969 -77.28796875 35.21585937 -78.2734375 35.23046875 C-81.06476161 34.99452588 -82.57194928 34.30798515 -85 33 C-85.04938149 28.62176083 -85.0857104 24.24366854 -85.10986328 19.86523438 C-85.11993043 18.3752968 -85.13358518 16.88537903 -85.15087891 15.39550781 C-85.17509653 13.25580972 -85.18647564 11.11637247 -85.1953125 8.9765625 C-85.21102295 7.04417725 -85.21102295 7.04417725 -85.22705078 5.07275391 C-85 2 -85 2 -83 0 C-80.01072693 -0.28520203 -80.01072693 -0.28520203 -76.12280273 -0.3347168 C-75.41520309 -0.34636871 -74.70760345 -0.35802063 -73.9785614 -0.37002563 C-71.63026302 -0.40611544 -69.2820694 -0.42792016 -66.93359375 -0.44921875 C-65.29890534 -0.47047605 -63.66422602 -0.49244346 -62.02955627 -0.51509094 C-58.59551064 -0.56056234 -55.16147552 -0.59932238 -51.72729492 -0.63305664 C-47.34494116 -0.67636113 -42.96289604 -0.73311293 -38.58076382 -0.7946043 C-35.19971977 -0.84104321 -31.81862571 -0.88172402 -28.43748665 -0.92057228 C-26.82328653 -0.93951275 -25.20910216 -0.95985307 -23.59493828 -0.98166466 C-5.74121345 -1.21370818 -5.74121345 -1.21370818 0 0 Z M-79 6 C-79 13.59 -79 21.18 -79 29 C-77.02 29 -75.04 29 -73 29 C-72.67 27.02 -72.34 25.04 -72 23 C-70.7934375 23.0309375 -70.7934375 23.0309375 -69.5625 23.0625 C-67.06645115 23.29633621 -67.06645115 23.29633621 -66 22 C-65.78982984 19.69104731 -65.63160059 17.37726031 -65.5 15.0625 C-65.11021814 8.22043628 -65.11021814 8.22043628 -64 6 C-68.95 6 -73.9 6 -79 6 Z M-56 6 C-55.01 7.485 -55.01 7.485 -54 9 C-53.78629236 11.92809907 -53.68868583 14.76419707 -53.68115234 17.6940918 C-53.67110672 18.5821048 -53.6610611 19.4701178 -53.65071106 20.38504028 C-53.6197962 23.32309313 -53.60282085 26.26105451 -53.5859375 29.19921875 C-53.56723253 31.2351816 -53.54765963 33.27113664 -53.5272522 35.30708313 C-53.4758541 40.66805425 -53.43626947 46.02905052 -53.39910889 51.39013672 C-53.35911735 56.85976422 -53.30800291 62.32928639 -53.2578125 67.79882812 C-53.1609623 78.53247817 -53.07658663 89.26618759 -53 100 C-49.35418313 100.02887512 -45.70839537 100.04675585 -42.0625 100.0625 C-41.02158203 100.07087891 -39.98066406 100.07925781 -38.90820312 100.08789062 C-37.42416992 100.09272461 -37.42416992 100.09272461 -35.91015625 100.09765625 C-34.53549194 100.10551147 -34.53549194 100.10551147 -33.13305664 100.11352539 C-31.01636977 100.23921211 -31.01636977 100.23921211 -30 99 C-29.87472813 96.10934764 -29.81389798 93.24143213 -29.79467773 90.34936523 C-29.78477814 89.44213715 -29.77487854 88.53490906 -29.76467896 87.60018921 C-29.73296405 84.58635106 -29.70826722 81.57249711 -29.68359375 78.55859375 C-29.66303284 76.47493569 -29.64203661 74.39128189 -29.62062073 72.30763245 C-29.56531091 66.81181269 -29.51594106 61.31595474 -29.46777344 55.82006836 C-29.4176233 50.21659936 -29.36190345 44.61318612 -29.30664062 39.00976562 C-29.19895012 28.00655618 -29.0980439 17.00329963 -29 6 C-37.91 6 -46.82 6 -56 6 Z M-20 6 C-19.67 6.99 -19.34 7.98 -19 9 C-18.77548542 11.22574335 -18.59217122 13.45581519 -18.4375 15.6875 C-18.35371094 16.86699219 -18.26992188 18.04648437 -18.18359375 19.26171875 C-18.12300781 20.16535156 -18.06242188 21.06898438 -18 22 C-17.20207031 22.27585937 -16.40414062 22.55171875 -15.58203125 22.8359375 C-13 24 -13 24 -11.6875 26.625 C-11.460625 27.40875 -11.23375 28.1925 -11 29 C-9.02 29 -7.04 29 -5 29 C-5 21.41 -5 13.82 -5 6 C-9.95 6 -14.9 6 -20 6 Z " fill="#FEFEFE" transform="translate(734,272)"/>
</svg>
